<?xml version="1.0" encoding="utf-8"?>
<!-- Generator: Adobe Illustrator 23.0.3, SVG Export Plug-In . SVG Version: 6.00 Build 0)  -->
<svg version="1.1" id="レイヤー_1" xmlns="http://www.w3.org/2000/svg" xmlns:xlink="http://www.w3.org/1999/xlink" x="0px"
	 y="0px" viewBox="0 0 453.5 198.4" style="enable-background:new 0 0 453.5 198.4;" xml:space="preserve">
<style type="text/css">
	.st0{clip-path:url(#SVGID_2_);}
	.st1{fill:#FFFFFF;}
</style>
<g>
	<defs>
		<rect id="SVGID_1_" x="-25.5" y="-45.8" width="504.5" height="290.1"/>
	</defs>
	<clipPath id="SVGID_2_">
		<use xlink:href="#SVGID_1_"  style="overflow:visible;"/>
	</clipPath>
	<g class="st0">
		<g>
			<g>
				<path class="st1" d="M49.2,122.2c10.2,0,18.5-4.5,18.5-18.7V93.4c-2.7,6.4-11.1,13-22.9,13c-12.8,0.1-31.9-6.9-31.9-35.4
					c0-21.6,13.5-35.3,31.9-35.3c11.9,0,20,6.9,23.2,13.2V37.4h17.9v63.9c0,22.7-14.4,33.4-36.7,33.4c-21.9,0-32.7-10.1-34.7-22
					h18.1C34.5,118.7,39.3,122.2,49.2,122.2z M49.6,93.3c11.8,0,18.8-8.8,18.8-22.6v-1.3c0-13.4-8.6-20.7-18.8-20.7
					C38,48.7,31,57.4,31,71c0,6.9,1.7,12.3,4.9,16.3C39.5,91.4,44.4,93.6,49.6,93.3z"/>
				<rect x="104" y="11" class="st1" width="19.3" height="17.5"/>
				<rect x="104.7" y="37.4" class="st1" width="18.3" height="70.9"/>
				<path class="st1" d="M150.4,108.3V50.3h-10V37.4h10V27.3c0-14.5,8.7-22.3,23.6-22.2c2.3,0,3.9,0,5.6,0.1c1.7,0,3.4,0.3,4.9,0.6
					v13.5c-1.2-0.1-2.2-0.3-3.4-0.4c-1.2,0-2.3-0.1-3.6-0.1c-3,0-5.3,0.8-6.7,2.3c-1.6,1.9-2.5,4.4-2.2,6.9v9.2h14.6v12.8h-14.6
					v58.1h-18.1V108.3z"/>
				<path class="st1" d="M230.5,95c3.2,0,6.5-0.5,9.6-1.4v13.6c-4.7,1.4-9.5,2.2-14.4,2.1c-15.3,0-22.6-6.5-22.6-20.5V50.3h-10V37.4
					h10V19.7h18.1v17.8h17.2v12.8h-17.4v35.9C221.2,93.3,225.1,95,230.5,95z"/>
				<path class="st1" d="M300.5,86.2h16.9c-3,15-14.5,23.7-32.5,23.7c-11.8,0-20.1-3.4-26.4-10c-6.1-6.4-10.1-15.3-10.1-27
					c0-22.6,15-37.2,36.2-37.2c14.1,0,24.9,7.1,29.8,18c2.9,6.5,4,14,3.8,23.5h-52.1c0,6.6,1.2,9.2,3.8,13c2.3,3.5,7.9,6.5,15.3,6.5
					c3.6,0.1,7.3-0.8,10.4-2.7C297.7,92,299.6,89.3,300.5,86.2z M283.9,49c-9.5,0-16.9,5.7-17.5,16.6h34
					C300.4,55.6,293.8,49,283.9,49z"/>
				<path class="st1" d="M378.3,86.2h16.9c-3,15-14.5,23.7-32.5,23.7c-11.8,0-20.1-3.4-26.4-10c-6.1-6.4-10.1-15.3-10.1-27
					c0-22.6,15-37.2,36.2-37.2c14.1,0,24.9,7.1,29.8,18c2.9,6.5,4,14,3.8,23.5h-52.1c0,6.6,1.2,9.2,3.6,13c2.3,3.5,7.9,6.5,15.3,6.5
					c3.6,0.1,7.3-0.8,10.4-2.7C375.5,92,377.4,89.3,378.3,86.2z M361.7,49c-9.5,0-16.9,5.7-17.5,16.6h34.1
					C378.2,55.6,371.6,49,361.7,49z"/>
			</g>
			<path class="st1" d="M439.7,28.7c-3.9,1.3-14.3,4.7-16.9,5.3c1-5.4,1.8-10.9,2.2-16.5c-3-1.2-6.4-1.2-9.3,0
				c0.4,5.6,1.2,11,2.2,16.5c-2.6-0.6-12.8-4-16.9-5.3c-0.9,2.5-1.2,5.2-1,7.8c5.3,1.6,10.8,2.7,16.3,3.2
				c-4.9,3.5-9.5,7.6-13.4,12.3c2.3,1.6,6.2,4.3,9.2,6.2c2.3-5.1,4.9-9.9,8-14.5c3.1,4.7,5.8,9.5,8,14.5c3-1.9,7-4.5,9.2-6.2
				c-3.9-4.7-8.4-8.8-13.4-12.3c5.6-0.6,11-1.7,16.3-3.2C440.9,35,440.5,30,439.7,28.7z"/>
		</g>
		<g>
			<path class="st1" d="M151.9,153.6v-2.8h3.3v-4.2c0-4.2,2.7-6.3,6.6-6.3c0.8,0,1.9,0.1,2.5,0.2v2.9c-0.6-0.1-1.5-0.1-2.3-0.1
				c-1.6,0-3.1,0.8-3.1,3.3v4.1h4.9v2.8h-4.9v19.6h-3.7v-19.6H151.9z"/>
			<path class="st1" d="M176,173.7c-6.3,0-10.8-4.5-10.8-11.7c0-7.2,4.5-11.7,10.8-11.7c6.3,0,10.8,4.5,10.8,11.7
				C186.8,169.2,182.3,173.7,176,173.7z M176,170.7c4.4,0,7.1-3.3,7.1-8.7c0-5.4-2.7-8.8-7.1-8.8s-7.1,3.4-7.1,8.8
				C168.9,167.3,171.6,170.7,176,170.7z"/>
			<path class="st1" d="M204.3,153.8c-0.5-0.1-1.4-0.2-2-0.2c-3.6,0-6.9,2.8-6.9,8.4v11h-3.8v-22.4h3.6v5.3c1-3.7,3.9-5.8,7.3-5.8
				c0.6,0,1.2,0,1.8,0.2V153.8z"/>
			<path class="st1" d="M215.5,173.1v-31.7h11.4c7.2,0,11.4,2.9,11.4,8.5c0,2.9-2.3,6-5,6.8c4,1,6.5,3.9,6.5,7.6
				c0,5.8-4.2,8.9-11.4,8.9H215.5z M227.1,155.4c4.8,0,7.2-2,7.2-5.5c0-3.5-2.4-5.4-7.2-5.4h-7.8v10.9H227.1z M219.3,170h8.8
				c4.9,0,7.7-2.1,7.7-5.8s-2.8-5.9-7.8-5.9h-8.7V170z"/>
			<path class="st1" d="M259.5,173.1v-4c-1.1,2.8-3.8,4.6-7.3,4.6c-5.2,0-8.1-3.1-8.1-8.5v-14.4h3.8v13.7c0,4.1,1.8,6.3,5.4,6.3
				c3.4,0,6-2.3,6-7.7v-12.3h3.8v22.4H259.5z"/>
			<path class="st1" d="M270.4,166.5c0.3,3.1,3.2,4.4,6.3,4.4c3.1,0,5.4-1.4,5.4-3.8c0-1.6-1.1-2.7-4-3.2l-4-0.8
				c-3.7-0.7-6.4-2.1-6.4-6c0-3.8,3.4-6.7,8.5-6.7c5.3,0,8.5,2.2,8.9,6.4h-3.5c-0.3-2.3-2.3-3.6-5.4-3.6c-3,0-5,1.5-5,3.6
				c0,1.9,1.4,2.7,4,3.2l4.5,0.8c3.7,0.7,5.9,2.5,5.9,6.1c0,3.9-3.8,6.8-8.9,6.8c-5.4,0-9.5-2.4-9.9-7.2H270.4z"/>
			<path class="st1" d="M290.3,141.6h4.3v4.5h-4.3V141.6z M290.6,150.8h3.8v22.4h-3.8V150.8z"/>
			<path class="st1" d="M304.3,154.9c1.1-2.8,3.9-4.6,7.4-4.6c5.1,0,8.2,3.2,8.2,8.5v14.4h-3.8v-13.6c0-4.1-1.9-6.3-5.4-6.3
				c-3.5,0-6.3,2.2-6.3,7.6v12.3h-3.8v-22.4h3.6V154.9z"/>
			<path class="st1" d="M334.7,173.7c-6.4,0-11-4.4-11-11.6c0-7.3,4.7-11.8,10.8-11.8c6.8,0,9.8,5.3,9.8,11v1.5h-16.9
				c0.2,5.2,2.9,8,7.3,8c3.1,0,4.9-1.5,5.9-4.2h3.5C343.1,171.3,339.2,173.7,334.7,173.7z M327.5,160.1h13.1c-0.1-3.9-2-6.8-6.1-6.8
				C330.9,153.2,328.2,155.5,327.5,160.1z"/>
			<path class="st1" d="M350.2,166.5c0.3,3.1,3.2,4.4,6.3,4.4c3.1,0,5.4-1.4,5.4-3.8c0-1.6-1.1-2.7-4-3.2l-4-0.8
				c-3.7-0.7-6.4-2.1-6.4-6c0-3.8,3.4-6.7,8.5-6.7c5.3,0,8.5,2.2,8.9,6.4h-3.5c-0.3-2.3-2.3-3.6-5.4-3.6c-3,0-5,1.5-5,3.6
				c0,1.9,1.4,2.7,4,3.2l4.5,0.8c3.7,0.7,5.9,2.5,5.9,6.1c0,3.9-3.8,6.8-8.9,6.8c-5.4,0-9.5-2.4-9.9-7.2H350.2z"/>
			<path class="st1" d="M372,166.5c0.3,3.1,3.2,4.4,6.3,4.4c3.1,0,5.4-1.4,5.4-3.8c0-1.6-1.1-2.7-4-3.2l-4-0.8
				c-3.7-0.7-6.4-2.1-6.4-6c0-3.8,3.4-6.7,8.5-6.7c5.3,0,8.5,2.2,8.9,6.4h-3.5c-0.3-2.3-2.3-3.6-5.4-3.6c-3,0-5,1.5-5,3.6
				c0,1.9,1.4,2.7,4,3.2l4.5,0.8c3.7,0.7,5.9,2.5,5.9,6.1c0,3.9-3.8,6.8-8.9,6.8c-5.4,0-9.5-2.4-9.9-7.2H372z"/>
		</g>
	</g>
</g>
</svg>
