<svg xmlns="http://www.w3.org/2000/svg" viewBox="0 0 323.8 127.56"><title>line2_nomal</title><g id="レイヤー_2" data-name="レイヤー 2"><g id="レイヤー_1-2" data-name="レイヤー 1"><path d="M27.47,88.61c7.76,0,14-3.44,14-14.13V66.82c-2.06,4.81-8.44,9.81-17.37,9.81C14.42,76.73,0,71.43,0,49.85,0,33.46,10.2,23.16,24.14,23.16c9,0,15.11,5.2,17.56,10V24.43H55.24V72.81c0,17.17-10.89,25.31-27.77,25.31-16.58,0-24.72-7.65-26.29-16.68H14.91C16.39,86,20,88.61,27.47,88.61Zm.3-21.89C36.7,66.72,42,60.05,42,49.65v-1C42,38.56,35.52,33,27.77,33c-8.73,0-14,6.57-14,16.88,0,5.2,1.27,9.32,3.73,12.36A12.76,12.76,0,0,0,27.77,66.72Z"/><rect x="68.98" y="4.42" width="14.62" height="13.25"/><rect x="69.47" y="24.43" width="13.84" height="53.67"/><path d="M104.11,78.11v-44H96.55V24.43h7.56V16.78C104.11,5.79,110.68-.1,122,0c1.76,0,2.94,0,4.22.1a15.67,15.67,0,0,1,3.72.49v10.2c-.88-.09-1.66-.19-2.55-.29s-1.76-.1-2.74-.1c-2.26,0-4,.59-5.11,1.77a7.28,7.28,0,0,0-1.67,5.2v7h11.09v9.71H117.84V78H104.11Z"/><path d="M164.75,68A25.94,25.94,0,0,0,172,66.92v10.3a34,34,0,0,1-10.89,1.57c-11.58,0-17.08-4.9-17.08-15.5V34.15h-7.55V24.43H144V11h13.74V24.43h13.05v9.72H157.68V61.33C157.68,66.72,160.63,68,164.75,68Z"/><path d="M217.73,61.33h12.76c-2.26,11.38-11,18-24.63,18-8.93,0-15.21-2.55-20-7.55-4.61-4.81-7.65-11.58-7.65-20.41,0-17.07,11.38-28.16,27.38-28.16,10.69,0,18.84,5.39,22.56,13.64,2.16,4.9,3.05,10.59,2.85,17.76H191.53c0,5,.89,7,2.85,9.81,1.77,2.65,6,4.91,11.58,4.91a14,14,0,0,0,7.85-2.06A12.34,12.34,0,0,0,217.73,61.33ZM205.17,33.17c-7.16,0-12.75,4.31-13.24,12.56h25.71C217.64,38.17,212.63,33.17,205.17,33.17Z"/><path d="M276.61,61.33h12.75c-2.25,11.38-11,18-24.63,18-8.93,0-15.2-2.55-20-7.55-4.61-4.81-7.66-11.58-7.66-20.41,0-17.07,11.39-28.16,27.38-28.16,10.7,0,18.84,5.39,22.57,13.64,2.16,4.9,3,10.59,2.84,17.76H250.41c0,5,.88,7,2.75,9.81,1.76,2.65,6,4.91,11.57,4.91a13.94,13.94,0,0,0,7.85-2.06A11.86,11.86,0,0,0,276.61,61.33ZM264.05,33.17c-7.17,0-12.76,4.31-13.25,12.56h25.81C276.51,38.17,271.5,33.17,264.05,33.17Z"/><path d="M323.1,17.86c-2.94,1-10.79,3.53-12.76,4A103.62,103.62,0,0,0,312,9.42a9.77,9.77,0,0,0-7.06,0,105.66,105.66,0,0,0,1.66,12.46c-2-.49-9.71-3-12.75-4a15.09,15.09,0,0,0-.79,5.89,66.24,66.24,0,0,0,12.37,2.45,53.52,53.52,0,0,0-10.11,9.32c1.77,1.18,4.71,3.24,7,4.71a79.61,79.61,0,0,1,6.08-11,69.53,69.53,0,0,1,6.08,11c2.26-1.47,5.3-3.43,7-4.71a53.52,53.52,0,0,0-10.11-9.32,75.22,75.22,0,0,0,12.37-2.45C324,22.57,323.69,18.84,323.1,17.86Z" style="fill:#0c6993"/><path d="M105.2,112.35v-2.12h2.51v-3.17c0-3.16,2.06-4.78,5-4.78a11.55,11.55,0,0,1,1.93.17v2.22a12.92,12.92,0,0,0-1.75-.1,2.21,2.21,0,0,0-2.37,2.53v3.13h3.71v2.12h-3.71v14.81h-2.82V112.35Z"/><path d="M123.47,127.56c-4.77,0-8.2-3.4-8.2-8.85s3.43-8.89,8.2-8.89,8.21,3.43,8.21,8.89S128.25,127.56,123.47,127.56Zm0-2.26c3.37,0,5.4-2.52,5.4-6.59s-2-6.63-5.4-6.63-5.39,2.55-5.39,6.63S120.11,125.3,123.47,125.3Z"/><path d="M144.87,112.55a7.15,7.15,0,0,0-1.48-.14c-2.75,0-5.25,2.12-5.25,6.4v8.35h-2.85V110.23H138v4a5.61,5.61,0,0,1,5.5-4.37,5.86,5.86,0,0,1,1.34.13Z"/><path d="M153.35,127.16v-24H162c5.46,0,8.62,2.22,8.62,6.43a5.64,5.64,0,0,1-3.81,5.12c3,.74,4.91,2.93,4.91,5.75,0,4.41-3.19,6.74-8.62,6.74Zm8.79-13.43c3.64,0,5.46-1.52,5.46-4.14s-1.78-4.11-5.42-4.11h-5.91v8.25Zm-5.87,11.07h6.66c3.75,0,5.81-1.62,5.81-4.38s-2.13-4.44-5.88-4.44h-6.59Z"/><path d="M186.66,127.16v-3.07a5.62,5.62,0,0,1-5.49,3.47c-3.92,0-6.12-2.32-6.12-6.43v-10.9h2.89v10.36c0,3.13,1.34,4.78,4.05,4.78s4.57-1.75,4.57-5.82v-9.32h2.89v16.93Z"/><path d="M194.91,122.14c.2,2.32,2.4,3.3,4.73,3.3s4.09-1.08,4.09-2.9c0-1.24-.82-2.05-3-2.45l-3.06-.61c-2.78-.5-4.81-1.61-4.81-4.58s2.61-5.08,6.43-5.08c4,0,6.42,1.68,6.76,4.88h-2.64c-.21-1.71-1.75-2.72-4.12-2.72s-3.78,1.11-3.78,2.76c0,1.44,1,2.05,3,2.42l3.44.64c2.81.54,4.46,1.88,4.46,4.61,0,3-2.85,5.15-6.73,5.15-4.12,0-7.21-1.78-7.52-5.42Z"/><path d="M210,103.29h3.23v3.4H210Zm.21,6.94H213v16.93h-2.85Z"/><path d="M220.56,113.32a5.87,5.87,0,0,1,5.63-3.5c3.88,0,6.18,2.39,6.18,6.43v10.91h-2.85v-10.3c0-3.13-1.41-4.75-4.12-4.75s-4.74,1.65-4.74,5.72v9.33h-2.85V110.23h2.75Z"/><path d="M243.6,127.56c-4.88,0-8.31-3.33-8.31-8.79s3.54-9,8.14-9c5.12,0,7.42,4,7.42,8.35v1.11H238.07c.14,3.9,2.23,6.06,5.53,6.06a4.31,4.31,0,0,0,4.47-3.17h2.68C250,125.78,247,127.56,243.6,127.56Zm-5.42-10.3h9.89c-.07-2.93-1.55-5.18-4.64-5.18C240.72,112.08,238.66,113.79,238.18,117.26Z"/><path d="M255.35,122.14c.2,2.32,2.4,3.3,4.74,3.3s4.08-1.08,4.08-2.9c0-1.24-.82-2.05-3-2.45l-3.06-.61c-2.78-.5-4.8-1.61-4.8-4.58s2.61-5.08,6.42-5.08c4,0,6.42,1.68,6.76,4.88h-2.64c-.21-1.71-1.75-2.72-4.12-2.72s-3.78,1.11-3.78,2.76c0,1.44,1,2.05,3,2.42l3.44.64c2.81.54,4.46,1.88,4.46,4.61,0,3-2.85,5.15-6.73,5.15-4.12,0-7.21-1.78-7.52-5.42Z"/><path d="M271.82,122.14c.2,2.32,2.4,3.3,4.74,3.3s4.08-1.08,4.08-2.9c0-1.24-.82-2.05-3-2.45l-3.06-.61c-2.78-.5-4.8-1.61-4.8-4.58s2.61-5.08,6.42-5.08c4,0,6.42,1.68,6.76,4.88H280.3c-.21-1.71-1.75-2.72-4.12-2.72s-3.78,1.11-3.78,2.76c0,1.44,1,2.05,3,2.42l3.44.64c2.81.54,4.46,1.88,4.46,4.61,0,3-2.85,5.15-6.73,5.15-4.12,0-7.21-1.78-7.52-5.42Z"/></g></g></svg>