<?xml version="1.0" encoding="utf-8"?>
<!-- Generator: Adobe Illustrator 23.0.3, SVG Export Plug-In . SVG Version: 6.00 Build 0)  -->
<svg version="1.1" id="レイヤー_1" xmlns="http://www.w3.org/2000/svg" xmlns:xlink="http://www.w3.org/1999/xlink" x="0px"
	 y="0px" viewBox="0 0 91.2 81.5" style="enable-background:new 0 0 91.2 81.5;" xml:space="preserve">
<style type="text/css">
	.st0{fill:#FFFFFF;}
	.st1{fill:#066292;}
	.st2{clip-path:url(#SVGID_2_);fill:#FFFFFF;}
	.st3{fill:#0C6993;stroke:#0C6993;stroke-width:0.75;stroke-miterlimit:10;}
</style>
<g>
	<g>
		<path class="st0" d="M31.8,28.6c-14.6,0-26.4,3.5-26.4,7.8v28c0,4.3,11.8,7.8,26.4,7.8s26.4-3.5,26.4-7.8v-28
			C58.1,32.1,46.3,28.6,31.8,28.6z"/>
		<path class="st1" d="M31.8,74.6C17.9,74.6,3,71.4,3,64.4v-28c0-7,14.9-10.2,28.8-10.2s28.8,3.2,28.8,10.2v28
			C60.6,71.4,45.6,74.6,31.8,74.6z M31.8,31C16,31,8.1,34.9,7.8,36.4l0,28c0.3,1.5,8.1,5.3,23.9,5.3s23.6-3.9,23.9-5.3l0-28
			C55.4,34.9,47.6,31,31.8,31z"/>
	</g>
	<path class="st1" d="M31.7,49.6c-14.3,0-28.8-4-28.8-11.6s14.5-11.6,28.8-11.6s28.8,4,28.8,11.6S46,49.6,31.7,49.6z M31.7,31.2
		c-15.5,0-23.9,4.5-23.9,6.8c0,2.3,8.4,6.8,23.9,6.8s23.9-4.5,23.9-6.8C55.6,35.7,47.2,31.2,31.7,31.2z"/>
	<path class="st1" d="M31.7,62.3c-14.3,0-28.8-4-28.8-11.6h4.9c0,2.3,8.4,6.8,23.9,6.8s23.9-4.5,23.9-6.8h4.9
		C60.5,58.3,46,62.3,31.7,62.3z"/>
	<g>
		<path class="st0" d="M31.8,2.7c-14.6,0-26.4,3.5-26.4,7.8v28c0,4.3,11.8,7.8,26.4,7.8s26.4-3.5,26.4-7.8v-28
			C58.2,6.2,46.4,2.7,31.8,2.7z"/>
		<path class="st1" d="M31.8,48.7C17.9,48.7,3,45.5,3,38.5v-28c0-7,14.9-10.2,28.8-10.2s28.8,3.2,28.8,10.2v28
			C60.6,45.5,45.7,48.7,31.8,48.7z M31.8,5.2C16,5.2,8.2,9,7.9,10.5l0,28c0.3,1.5,8.1,5.3,23.9,5.3s23.6-3.9,23.9-5.3l0-28
			C55.4,9,47.6,5.2,31.8,5.2z"/>
	</g>
	<path class="st1" d="M31.7,23.7c-14.3,0-28.8-4-28.8-11.6S17.4,0.5,31.7,0.5s28.8,4,28.8,11.6S46,23.7,31.7,23.7z M31.7,5.3
		c-15.5,0-23.9,4.5-23.9,6.8s8.4,6.8,23.9,6.8s23.9-4.5,23.9-6.8S47.2,5.3,31.7,5.3z"/>
	<path class="st1" d="M31.7,36.5c-14.3,0-28.8-4-28.8-11.6h4.9c0,2.3,8.4,6.8,23.9,6.8s23.9-4.5,23.9-6.8h4.9
		C60.5,32.5,46,36.5,31.7,36.5z"/>
</g>
<g>
	<defs>
		<rect id="SVGID_1_" x="40.7" y="26.6" width="50.4" height="54.9"/>
	</defs>
	<clipPath id="SVGID_2_">
		<use xlink:href="#SVGID_1_"  style="overflow:visible;"/>
	</clipPath>
	<circle class="st2" cx="75.5" cy="61.3" r="29.7"/>
</g>
<path class="st0" d="M43.9,43.1c1-0.1,2-0.3,2.9-0.4l0.1-0.1C46,42.7,45,42.9,43.9,43.1z"/>
<path class="st0" d="M44.6,47.9c-0.5,0.1-1,0.1-1.5,0.2l0,0C43.6,48.1,44.1,48,44.6,47.9z"/>
<path class="st3" d="M69.2,51.2c-4.6,0-8.3,3.7-8.3,8.3c0,4.6,3.7,8.3,8.3,8.3c4.6,0,8.3-3.7,8.3-8.3C77.5,54.9,73.8,51.2,69.2,51.2
	C69.2,51.2,69.2,51.2,69.2,51.2z M69.2,64.5c-2.8,0-5-2.2-5-5s2.2-5,5-5c2.8,0,5,2.2,5,5C74.2,62.2,72,64.5,69.2,64.5
	C69.3,64.5,69.2,64.5,69.2,64.5z"/>
<path class="st3" d="M89.5,56l-2.4-0.5c-1.1-0.2-2-1-2.4-2c-0.4-1-0.3-2.2,0.4-3.1l1.5-2.1c0.5-0.7,0.4-1.6-0.2-2.2l-3.3-3.3
	c-0.6-0.6-1.4-0.6-2.1-0.2L79,44c-0.9,0.6-2.1,0.7-3.1,0.3c-1-0.4-1.8-1.4-1.9-2.5l-0.4-2.5c-0.1-0.8-0.8-1.4-1.6-1.4h-4.6
	c-0.8,0-1.4,0.5-1.6,1.3l-0.6,3.1c-0.2,1.1-0.9,2-2,2.4c-1,0.4-2.2,0.3-3.1-0.3l-2.6-1.8c-0.7-0.4-1.5-0.4-2.1,0.2L52,46.2
	c-0.6,0.6-0.6,1.5-0.2,2.2l1.5,2.1c0.7,0.9,0.8,2.1,0.4,3.1c-0.4,1.1-1.3,1.8-2.4,2L48.9,56c-0.8,0.1-1.3,0.8-1.3,1.6v4.6
	c0,0.8,0.6,1.5,1.4,1.6l2.5,0.4c1.1,0.2,2,0.9,2.5,1.9c0.5,1,0.3,2.3-0.3,3.2l-1.4,2c-0.4,0.7-0.4,1.5,0.2,2.1l3.3,3.3
	c0.6,0.6,1.5,0.6,2.2,0.2l2.1-1.5c0.9-0.7,2.1-0.8,3.1-0.4c1.1,0.4,1.8,1.3,2,2.4l0.5,2.4c0.1,0.8,0.8,1.3,1.6,1.3h4.6
	c0.8,0,1.5-0.6,1.6-1.4l0.3-1.8c0.2-1.1,0.9-2.1,2-2.5c1.1-0.4,2.3-0.3,3.2,0.4l1.4,1.1c0.7,0.5,1.6,0.4,2.2-0.2l3.3-3.3
	c0.6-0.5,0.7-1.5,0.2-2.1l-1.4-2c-0.6-1-0.7-2.1-0.3-3.2c0.4-1,1.4-1.8,2.5-1.9l2.5-0.4c0.8-0.1,1.4-0.8,1.4-1.6v-4.6
	C90.8,56.8,90.3,56.1,89.5,56z M87.5,60.8L86.4,61c-2.2,0.3-4.2,1.8-5,3.9c-0.9,2.1-0.7,4.5,0.6,6.3l0.6,0.9l-1.3,1.3L81,73.1
	c-1.8-1.4-4.3-1.7-6.4-0.8c-2.1,0.9-3.7,2.8-4,5.1l-0.1,0.4h-1.8l-0.2-1.1c-0.4-2.2-2-4.1-4.1-4.9c-2.1-0.8-4.5-0.5-6.3,0.8
	l-0.9,0.7L55.9,72l0.6-0.9c1.3-1.9,1.5-4.2,0.6-6.3c-0.9-2.1-2.8-3.6-5.1-3.9l-1.1-0.2V59l1-0.2c2.2-0.4,4.1-2,4.9-4.1
	c0.8-2.1,0.5-4.5-0.8-6.3l-0.7-0.9l1.3-1.3l1.5,1c1.8,1.3,4.2,1.5,6.2,0.6c2.1-0.9,3.5-2.7,4-4.9l0.3-1.8h1.8l0.2,1.1
	c0.6,3.6,4,6,7.6,5.5c0.9-0.2,1.9-0.5,2.6-1.1l0.9-0.6l1.3,1.3l-0.7,0.9c-1.3,1.8-1.7,4.2-0.8,6.3c0.8,2.1,2.7,3.6,4.9,4.1l1,0.2
	L87.5,60.8L87.5,60.8z"/>
</svg>
