<?xml version="1.0" encoding="utf-8"?>
<!-- Generator: Adobe Illustrator 23.0.3, SVG Export Plug-In . SVG Version: 6.00 Build 0)  -->
<svg version="1.1" id="レイヤー_1" xmlns="http://www.w3.org/2000/svg" xmlns:xlink="http://www.w3.org/1999/xlink" x="0px"
	 y="0px" viewBox="0 0 74.6 81.7" style="enable-background:new 0 0 74.6 81.7;" xml:space="preserve">
<style type="text/css">
	.st0{fill:#0C6993;}
	.st1{fill:#FFFFFF;}
</style>
<g transform="translate(4.4)">
	<path class="st0" d="M66,27.2c0-0.9-0.8-1.7-1.7-1.7c-0.9,0-1.7,0.8-1.7,1.7V77c0,0.6-0.5,1.1-1.1,1.1H4.6c-0.6,0-1.1-0.5-1.1-1.1
		V4.7C3.4,4.1,3.9,3.6,4.4,3.5c0.1,0,0.1,0,0.2,0h41.7v15.6c0,0.9,0.7,1.7,1.7,1.7l0,0h16.2c0.7,0,1.3-0.4,1.6-1
		c0.3-0.6,0.1-1.4-0.3-1.9L49.3,0.6c-0.2-0.2-0.4-0.3-0.6-0.4C48.5,0.1,48.3,0,48.1,0H4.6C2,0,0,2.1,0,4.7v72.4
		c0,2.5,2.1,4.6,4.6,4.6h56.8c2.5,0,4.6-2.1,4.6-4.6V27.2z M50.1,6.5l-0.4-0.3V6.1L50.1,6.5z"/>
</g>
<path class="st0" d="M71.5,67.7H3c-1.7,0-3-1.3-3-3V33.3c0-1.7,1.3-3,3-3h68.6c1.7,0,3,1.3,3,3v31.5C74.5,66.4,73.1,67.7,71.5,67.7z
	"/>
<g>
	<path class="st1" d="M21.2,44.7h-7.9v3.2h7.3v2.6h-7.3v3.8h8.3V57H10.3V42h11L21.2,44.7L21.2,44.7z"/>
	<path class="st1" d="M23.3,57l3.8-5.6L23.5,46H27l1.8,3.2l1.8-3.2H34l-3.6,5.4l3.8,5.6h-3.6l-1.9-3.3L26.8,57H23.3z"/>
	<path class="st1" d="M43.2,49.9c-0.1-0.4-0.2-0.8-0.4-1.1c-0.3-0.4-0.8-0.7-1.5-0.7c-1,0-1.6,0.5-2,1.5c-0.2,0.5-0.3,1.2-0.3,2
		s0.1,1.5,0.3,2c0.3,0.9,1,1.4,2,1.4c0.7,0,1.2-0.2,1.4-0.5c0.3-0.4,0.5-0.8,0.5-1.4h3c-0.1,0.9-0.4,1.7-1,2.5
		c-0.9,1.3-2.2,1.9-4,1.9s-3.1-0.5-3.9-1.6S36,53.4,36,51.7c0-1.9,0.5-3.4,1.4-4.4s2.2-1.6,3.8-1.6c1.4,0,2.5,0.3,3.4,0.9
		s1.4,1.7,1.6,3.3H43.2z"/>
	<path class="st1" d="M56,46.2c0.8,0.3,1.4,0.9,1.9,1.6c0.5,0.7,0.7,1.4,0.9,2.3c0.1,0.5,0.1,1.2,0.1,2.2h-8c0,1.1,0.4,1.9,1.2,2.3
		c0.4,0.3,1,0.4,1.6,0.4c0.7,0,1.2-0.2,1.6-0.5c0.2-0.2,0.4-0.4,0.6-0.8h3c-0.1,0.7-0.4,1.3-1.1,2c-1,1.1-2.4,1.6-4.2,1.6
		c-1.5,0-2.8-0.5-3.9-1.4C48.6,55,48,53.5,48,51.5c0-1.9,0.5-3.4,1.5-4.4s2.3-1.5,4-1.5C54.3,45.6,55.2,45.8,56,46.2z M51.7,48.6
		c-0.4,0.4-0.7,1-0.8,1.7h5c-0.1-0.8-0.3-1.3-0.8-1.7s-1-0.6-1.7-0.6C52.6,48,52.1,48.2,51.7,48.6z"/>
	<path class="st1" d="M63.9,57H61V42h2.9V57z"/>
</g>
</svg>
