<?xml version="1.0" encoding="utf-8"?>
<!-- Generator: Adobe Illustrator 23.0.3, SVG Export Plug-In . SVG Version: 6.00 Build 0)  -->
<svg version="1.1" id="レイヤー_1" xmlns="http://www.w3.org/2000/svg" xmlns:xlink="http://www.w3.org/1999/xlink" x="0px"
	 y="0px" viewBox="0 0 61 104.3" style="enable-background:new 0 0 61 104.3;" xml:space="preserve">
<style type="text/css">
	.st0{fill:#FFFFFF;}
	.st1{fill:#0C6993;stroke:#0C6993;stroke-width:0.5;stroke-miterlimit:10;}
	.st2{fill:#0C6993;}
	.st3{fill:#0C6993;stroke:#0C6993;stroke-width:0.25;stroke-miterlimit:10;}
</style>
<g transform="translate(0.05 -0.05)">
	<g transform="translate(0.2 0.3)">
		<path class="st0" d="M53.6,102.2H7c-2.9,0-5.2-2.3-5.2-5.2c0,0,0,0,0,0L1.7,6.9C1.7,4,4,1.7,6.9,1.7c0,0,0,0,0,0h46.7
			c2.9,0,5.2,2.3,5.2,5.2c0,0,0,0,0,0v90.1c0.1,2.8-2.2,5.2-5,5.2C53.7,102.2,53.7,102.2,53.6,102.2z"/>
		<path class="st1" d="M53.7,103.8H6.8c-3.7,0-6.8-3.1-6.8-6.8V6.8C0,3.1,3.1,0,6.8,0h46.9c3.7,0,6.8,3.1,6.8,6.8V97
			C60.5,100.8,57.4,103.8,53.7,103.8z M6.8,3.2c-1.9,0-3.5,1.6-3.5,3.5v90.2c0,1.9,1.6,3.5,3.5,3.5h46.9c1.9,0,3.5-1.6,3.5-3.5V6.7
			c0-1.9-1.6-3.5-3.5-3.5L6.8,3.2z"/>
		<g transform="translate(6.009 14.628)">
			<path class="st2" d="M3.4,73.1c-1.7,0-3-1.3-3-3V3.4c0-1.7,1.3-3,3-3h41.8c1.7,0,3,1.3,3,3V70c0,1.7-1.3,3-3,3L3.4,73.1L3.4,73.1
				z M2.8,70.4l42.3,0.2c0.3,0,0.5-0.2,0.6-0.5c0,0,0,0,0,0V3L3,2.8L2.8,70.4z"/>
			<path class="st2" d="M45.1,0.8c1.4,0,2.6,1.2,2.6,2.6V70c0,1.4-1.2,2.6-2.6,2.6H3.4c-1.4,0-2.6-1.2-2.6-2.6V3.4
				C0.8,2,2,0.8,3.4,0.8H45.1 M45.1,70.9L45.1,70.9c0.5,0,0.9-0.4,0.9-0.9V2.6h-0.8L3.4,2.5H2.6v0.8L2.5,69.9v0.8h0.8L45.1,70.9
				 M45.1,0H3.4C1.5,0,0,1.5,0,3.4c0,0,0,0,0,0.1V70c0,1.9,1.5,3.4,3.3,3.4c0,0,0,0,0.1,0h41.7c1.9,0,3.4-1.5,3.4-3.3c0,0,0,0,0-0.1
				V3.4C48.5,1.5,47,0,45.1,0L45.1,0z M45.1,70.1L3.2,70L3.4,3.3l41.9,0.2v66.6C45.3,70.1,45.2,70.1,45.1,70.1L45.1,70.1z"/>
		</g>
		<path class="st2" d="M30.3,99.1c-2.9,0-5.3-2.4-5.3-5.3c0-2.9,2.4-5.3,5.3-5.3s5.3,2.4,5.3,5.3S33.2,99.1,30.3,99.1L30.3,99.1z
			 M30.3,91.9c-1.1,0-2,0.9-2,2c0,1.1,0.9,2,2,2c1.1,0,2-0.9,2-2l0,0C32.3,92.8,31.4,91.9,30.3,91.9C30.3,91.9,30.3,91.9,30.3,91.9z
			"/>
		<g transform="translate(21.507 8.54)">
			<path class="st3" d="M16.8,2.5H4.4C4,2.5,3.6,2.2,3.6,1.7V0.8C3.6,0.4,4,0,4.4,0h12.3c0.4,0,0.8,0.4,0.8,0.8v0.9
				C17.6,2.2,17.3,2.5,16.8,2.5C16.8,2.5,16.8,2.5,16.8,2.5z"/>
			<circle class="st3" cx="1.3" cy="1.3" r="1.3"/>
		</g>
	</g>
	<g transform="translate(15.381 32.561)">
		<g transform="translate(2.436 6.8)">
			<path class="st0" d="M21,29.2l2.9-26.4c0.1-0.7-0.4-1.3-1.1-1.3c0,0-0.1,0-0.1,0H2.7C2,1.4,1.5,2,1.5,2.6c0,0,0,0.1,0,0.1
				l2.8,26.4c0,0.6,0.6,1.1,1.2,1.1h14.2C20.4,30.2,20.9,29.8,21,29.2z"/>
			<path class="st2" d="M19.8,31.7H5.5c-1.4,0-2.5-1-2.7-2.4L0,2.9C-0.2,1.5,0.8,0.2,2.3,0c0.1,0,0.2,0,0.4,0h19.9
				c0.8,0,1.5,0.3,2,0.9c0.5,0.6,0.7,1.3,0.6,2.1l-2.8,26.4C22.3,30.7,21.1,31.7,19.8,31.7z M5.7,28.8h13.8l2.8-25.9H2.9L5.7,28.8z"
				/>
		</g>
		<g transform="translate(3.005)">
			<path class="st0" d="M21.3,5.5H2.9C2.1,5.5,1.4,4.8,1.4,4l0,0c0-1.4,1.1-2.5,2.5-2.5c0,0,0,0,0.1,0h16.3c1.4,0,2.5,1.1,2.5,2.5
				c0,0,0,0,0,0.1l0,0C22.8,4.8,22.1,5.5,21.3,5.5C21.3,5.5,21.3,5.5,21.3,5.5z"/>
			<path class="st2" d="M21.4,7H2.8C1.2,7,0,5.7,0,4.2c0,0,0,0,0,0V3.7C0,1.7,1.7,0,3.7,0c0,0,0,0,0,0h16.9c2.1,0,3.7,1.7,3.7,3.7
				c0,0,0,0,0,0v0.5C24.2,5.7,23,6.9,21.4,7z M2.8,4h18.5V3.6c0-0.4-0.4-0.8-0.8-0.8H3.6c-0.4,0-0.8,0.4-0.8,0.8L2.8,4z"/>
		</g>
		<g transform="translate(0 4.902)">
			<path class="st0" d="M26.6,6.8H3.5c-1.1,0-2-0.9-2.1-2.1l0,0c0-1.9,1.5-3.4,3.3-3.4c0,0,0,0,0.1,0h20.5c1.9,0,3.4,1.5,3.4,3.3
				c0,0,0,0,0,0.1l0,0C28.7,5.9,27.8,6.8,26.6,6.8C26.7,6.8,26.7,6.8,26.6,6.8z"/>
			<path class="st2" d="M26.9,8.3H3.2C1.5,8.3,0,6.9,0,5.1c0,0,0,0,0-0.1V4.4C0,2,2,0,4.4,0c0,0,0,0,0,0h21.2C28.1,0,30,2,30,4.4
				c0,0,0,0,0,0v0.6c0.1,1.7-1.3,3.2-3,3.2C27,8.3,26.9,8.3,26.9,8.3z M4.5,2.8c-0.9,0-1.6,0.7-1.6,1.6v0.6c0,0.2,0.2,0.4,0.4,0.4
				H27c0.2,0,0.4-0.2,0.4-0.4V4.4c0-0.9-0.7-1.6-1.6-1.6H4.5z"/>
		</g>
		<path class="st2" d="M5.8,28.7h18.6l1.1-12H4.7L5.8,28.7z"/>
	</g>
</g>
</svg>
