<?xml version="1.0" encoding="utf-8"?>
<!-- Generator: Adobe Illustrator 23.0.3, SVG Export Plug-In . SVG Version: 6.00 Build 0)  -->
<svg version="1.1" id="レイヤー_1" xmlns="http://www.w3.org/2000/svg" xmlns:xlink="http://www.w3.org/1999/xlink" x="0px"
	 y="0px" viewBox="0 0 91.1 124.2" style="enable-background:new 0 0 91.1 124.2;" xml:space="preserve">
<style type="text/css">
	.st0{fill:#FFFFFF;}
	.st1{fill:#1C5E88;}
	.st2{fill:none;}
	.st3{clip-path:url(#SVGID_2_);fill:#FFFFFF;}
</style>
<polyline class="st0" points="18.4,37.9 12.7,37.9 14.3,48.7 18.1,50.1 20.1,48.9 "/>
<polyline class="st0" points="56.9,37.1 62.3,37.9 64.9,41.6 62.3,48.3 59.4,50.1 54.8,48.4 "/>
<polygon class="st0" points="24.4,65.5 14.3,71.2 4.3,84.1 3.8,115 44.1,115 44.2,113 51,113 60.7,115 70.7,115 69.2,82.3 
	63.3,72.1 48.6,64 42.2,59.1 28.9,56.7 25.7,66.2 "/>
<path class="st1" d="M3.6,117.1L3.6,117.1c-1.2-0.1-2.1-1-2.1-2.2c0.1-1.6,0.8-16.4,1.1-23.8L2.8,87C3.2,79.3,7.1,73,14,68.6
	c5.2-3.3,10.2-4.3,10.3-4.3c1.1-0.3,2.2,0.5,2.4,1.6c0.3,1.1-0.5,2.2-1.6,2.4c-0.1,0-4.6,0.9-9.1,3.8c-5.9,3.7-8.9,8.8-9.2,15.1
	l-0.2,4.1c-0.3,7.5-1,22.3-1.1,23.9C5.6,116.2,4.7,117.1,3.6,117.1z"/>
<rect x="20.3" y="62.8" transform="matrix(0.1516 -0.9884 0.9884 0.1516 -40.8324 82.0646)" class="st1" width="14.2" height="4"/>
<rect x="47" y="57.7" transform="matrix(0.9885 -0.1514 0.1514 0.9885 -9.2408 8.169)" class="st1" width="4" height="14.2"/>
<g>
	<g>
		<ellipse class="st0" cx="38.3" cy="40.4" rx="20" ry="25.1"/>
		<path class="st1" d="M38.3,67.2c-12,0-21.7-12.1-21.7-26.8s9.7-26.8,21.7-26.8S60,25.7,60,40.4C60,55.2,50.3,67.2,38.3,67.2z
			 M38.3,17.2c-10.1,0-18.2,10.4-18.2,23.3s8.2,23.3,18.2,23.3c10.1,0,18.2-10.4,18.2-23.3C56.6,27.6,48.4,17.2,38.3,17.2z"/>
	</g>
	<path class="st1" d="M16.9,51.4c-0.3,0-0.5,0-0.8-0.1c-2.2-0.4-3.8-2.6-4.8-6.5c-1-3.6-0.7-6.3,0.9-7.8c2.2-2.2,5.6-1.2,5.9-1.1
		l-1,3.4c-0.6-0.2-2-0.3-2.5,0.3c-0.6,0.6-0.6,2.2,0,4.4c0.9,3,1.7,4,2.2,4c0.3,0.1,1-0.4,1.3-0.8l2.8,2.2
		C20.6,49.6,19,51.4,16.9,51.4z"/>
	<path class="st1" d="M60,51.4c-2.2,0-3.7-1.8-3.9-2.1l2.8-2.2c0.3,0.3,0.9,0.8,1.3,0.7s1.4-1,2.2-4c0.6-2.2,0.6-3.8,0-4.4
		s-2.1-0.3-2.5-0.3l-1-3.4c0.3-0.1,3.8-1,5.9,1.1c1.6,1.6,1.9,4.2,0.9,7.8c-1.1,4-2.7,6-4.8,6.5C60.5,51.4,60.3,51.4,60,51.4z"/>
</g>
<g>
	<g>
		<path class="st0" d="M52.8,66.6l1.8,2.5c0.2,0.3,0.3,0.6,0.1,0.9l-5.9,12.5c-0.3,0.5-0.9,0.7-1.4,0.4l-8.7-5.3
			c-0.6-0.3-0.6-1.1-0.1-1.6l12.8-9.6C51.8,66.1,52.4,66.2,52.8,66.6z"/>
		<path class="st1" d="M47.9,85.1c-0.6,0-1.1-0.2-1.6-0.4l-8.7-5.3c-0.9-0.5-1.5-1.5-1.5-2.4c-0.1-1,0.4-2,1.2-2.6l12.8-9.6
			c0.7-0.5,1.6-0.7,2.3-0.6c0.9,0.1,1.6,0.5,2.1,1.2l0,0l1.8,2.5c0.7,0.9,0.8,2.1,0.3,3.1l-5.9,12.5c-0.3,0.8-1,1.4-1.9,1.6
			C48.5,85,48.1,85.1,47.9,85.1z M41.2,76.7l6.1,3.7l5.1-10.7l-0.7-0.9L41.2,76.7z M39.7,75.7L39.7,75.7L39.7,75.7z"/>
	</g>
	<g>
		<path class="st0" d="M23.6,66.6l-1.8,2.5c-0.2,0.3-0.3,0.6-0.1,0.9l5.9,12.5c0.3,0.5,0.9,0.7,1.4,0.4l8.7-5.3
			c0.6-0.3,0.6-1.1,0.1-1.6L25,66.5C24.5,66.1,23.9,66.2,23.6,66.6z"/>
		<path class="st1" d="M28.5,85.1c-0.3,0-0.6-0.1-0.9-0.2c-0.9-0.3-1.6-0.9-1.9-1.6l-5.9-12.5c-0.5-1-0.3-2.2,0.3-3.1l1.8-2.5
			c0.5-0.7,1.2-1.1,2.1-1.2c0.9-0.1,1.6,0.1,2.3,0.6l12.8,9.6c0.8,0.6,1.3,1.6,1.2,2.6s-0.6,1.9-1.5,2.4l-8.7,5.3
			C29.6,84.9,29.1,85.1,28.5,85.1z M23.9,69.7L29,80.4l6.1-3.7l-10.5-7.9L23.9,69.7z"/>
	</g>
</g>
<path class="st1" d="M58.6,117.1c-1.1,0-2.1-0.9-2.1-2.1V92.9c0-1.1,0.9-2.1,2.1-2.1c1.1,0,2.1,0.9,2.1,2.1V115
	C60.7,116.2,59.8,117.1,58.6,117.1z"/>
<path class="st1" d="M71,117.1H51c-1.1,0-2.1-0.9-2.1-2.1c0-1.1,0.9-2.1,2.1-2.1h17.8c-0.3-4.7-0.7-15.6-1-21.7l-0.2-4.1
	c-0.3-6.3-3.4-11.4-9.2-15.1c-4.5-2.8-9-3.8-9.1-3.8c-1.1-0.3-1.8-1.3-1.6-2.4c0.3-1.1,1.3-1.8,2.4-1.6c0.2,0,5.3,1,10.3,4.3
	c7,4.4,10.9,10.8,11.2,18.4l0.2,4.1c0.3,7.5,1,22.2,1.1,23.8c0,0.6-0.2,1.1-0.6,1.6C72.1,116.9,71.6,117.1,71,117.1z"/>
<path class="st1" d="M44.2,117.1H3.7c-1.1,0-2.1-0.9-2.1-2.1c0-1.1,0.9-2.1,2.1-2.1h40.5c1.1,0,2.1,0.9,2.1,2.1
	C46.2,116.2,45.3,117.1,44.2,117.1z"/>
<circle class="st1" cx="38.1" cy="9.5" r="11.1"/>
<path class="st1" d="M30.3,26.5c0.5-0.4,2-0.9,3,0.2c1,1.1,12.8,7.2,25.1,10c1.2,0.3,2.2,0.7,3.2,1.1h0.1c0.3-1.6,0.5-3.3,0.5-5
	C62.4,18.8,51.8,7.2,38.6,7S14.4,17.9,14.1,32c0,2.5,0.3,4.9,0.9,7.1C17.8,38.7,22.8,36.2,30.3,26.5z"/>
<g>
	<line class="st2" x1="38.1" y1="77.8" x2="38.1" y2="104"/>
	<path class="st1" d="M38.1,105.7c-0.9,0-1.6-0.8-1.6-1.6V77.8c0-0.9,0.8-1.6,1.6-1.6s1.6,0.8,1.6,1.6V104
		C39.9,105,39.1,105.7,38.1,105.7z"/>
</g>
<g>
	<defs>
		<rect id="SVGID_1_" x="58.3" y="81.4" width="32.8" height="42.8"/>
	</defs>
	<clipPath id="SVGID_2_">
		<use xlink:href="#SVGID_1_"  style="overflow:visible;"/>
	</clipPath>
	<path class="st3" d="M62.9,120.4l-1.6-25.7c-0.3-3.9,2.2-7.1,5.3-7.1h26.7c2.9,0,5.3,2.9,5.3,6.6v29.5c0,4-2.8,7.1-5.9,6.5
		l-25.1-3.8C65.1,126.1,63.1,123.6,62.9,120.4z"/>
</g>
<path class="st1" d="M17.7,117.1c-1.1,0-2.1-0.9-2.1-2.1V92.9c0-1.1,0.9-2.1,2.1-2.1c1.1,0,2.1,0.9,2.1,2.1V115
	C19.7,116.2,18.9,117.1,17.7,117.1z"/>
<path class="st0" d="M0.6,73.3"/>
<g>
	<path class="st0" d="M84,121.2l2.4-22.6c0.1-0.6-0.4-1.1-1-1.1H68.4c-0.6,0-1.1,0.5-1,1.1l2.4,22.6c0.1,0.5,0.5,0.9,1,0.9h12.1
		C83.5,122.1,84,121.7,84,121.2z"/>
	<path class="st1" d="M83,123.3H70.9c-1.2,0-2.2-0.9-2.2-2.1l-2.4-22.6c-0.1-0.6,0.2-1.3,0.6-1.8s1-0.8,1.7-0.8h17.1
		c0.7,0,1.3,0.3,1.7,0.8c0.4,0.5,0.6,1.1,0.6,1.8l-2.4,22.6C85.2,122.5,84.1,123.3,83,123.3z M82.8,121L82.8,121L82.8,121L82.8,121z
		 M71,120.8h11.9l2.4-22.2H68.6L71,120.8z"/>
</g>
<g>
	<path class="st0" d="M84.7,95.8H69.1c-0.7,0-1.3-0.6-1.3-1.3l0,0c0-1.2,0.9-2.2,2.2-2.2h14c1.2,0,2.2,0.9,2.2,2.2l0,0
		C86,95.2,85.4,95.8,84.7,95.8z"/>
	<path class="st1" d="M84.9,97h-16c-1.3,0-2.4-1-2.4-2.4v-0.4c0-1.7,1.5-3.2,3.2-3.2h14.5c1.7,0,3.2,1.5,3.2,3.2v0.4
		C87.3,96,86.2,97,84.9,97z M69,94.6h15.8v-0.3c0-0.3-0.3-0.7-0.7-0.7H69.7c-0.3,0-0.7,0.3-0.7,0.7L69,94.6L69,94.6z"/>
</g>
<g>
	<path class="st0" d="M86.8,100.4H67c-0.9,0-1.7-0.8-1.7-1.7l0,0c0-1.6,1.3-2.9,2.9-2.9h17.5c1.6,0,2.9,1.3,2.9,2.9l0,0
		C88.5,99.7,87.8,100.4,86.8,100.4z"/>
	<path class="st1" d="M87,101.7H66.7c-1.6,0-2.8-1.2-2.8-2.8v-0.5c0-2.1,1.7-3.8,3.8-3.8h18.2c2.1,0,3.8,1.7,3.8,3.8V99
		C89.8,100.4,88.5,101.7,87,101.7z M67.9,97.1c-0.8,0-1.3,0.6-1.3,1.3v0.5c0,0.2,0.2,0.3,0.3,0.3h20.2c0.2,0,0.3-0.2,0.3-0.3v-0.5
		c0-0.8-0.6-1.3-1.3-1.3H67.9z"/>
</g>
<polygon class="st1" points="69,115 84.8,115 85.8,104.6 68,104.6 "/>
</svg>
